PathFileType  4	(X/Y/Z) C:\Users\antoi\Documents\MyRepositories\mobilecap\ResultsAnalysis
DataRate	CameraRate	NumFrames	NumMarkers	Units	OrigDataRate	OrigDataStartFrame	OrigNumFrames
100.0	100.0	4	51	mm	100.0	35	136
Frame#	Time	r_knee			r_shank_antsup			r_ankle			r_calc			r_5meta			r_toe			L_knee			L_shank_antsup			L_ankle			L_calc			L_5meta			L_toe			r_sh2			r_sh3			r_sh4			L_sh2			L_sh3			r_thigh1			r_thigh2			r_thigh3			r_thigh4			r_thigh5			L_thigh1			L_thigh2			L_thigh3			L_thigh4			r.ASIS			r.PSIS			L.ASIS			L.PSIS			C7			R_Shoulder			L_Shoulder			R_Sternum			L_Sternum			R_humerus			R_elbow_med			R_elbow_lat			R_forearm			R_wrist_radius			R_wrist_ulna			L_humerus			L_elbow_med			L_elbow_lat			L_forearm			L_wrist_radius			L_wrist_ulna			R_HJC			L_HJC			R_HJC_reg			L_HJC_reg			
		X1	Y1	Z1	X2	Y2	Z2	X3	Y3	Z3	X4	Y4	Z4	X5	Y5	Z5	X6	Y6	Z6	X7	Y7	Z7	X8	Y8	Z8	X9	Y9	Z9	X10	Y10	Z10	X11	Y11	Z11	X12	Y12	Z12	X13	Y13	Z13	X14	Y14	Z14	X15	Y15	Z15	X16	Y16	Z16	X17	Y17	Z17	X18	Y18	Z18	X19	Y19	Z19	X20	Y20	Z20	X21	Y21	Z21	X22	Y22	Z22	X23	Y23	Z23	X24	Y24	Z24	X25	Y25	Z25	X26	Y26	Z26	X27	Y27	Z27	X28	Y28	Z28	X29	Y29	Z29	X30	Y30	Z30	X31	Y31	Z31	X32	Y32	Z32	X33	Y33	Z33	X34	Y34	Z34	X35	Y35	Z35	X36	Y36	Z36	X37	Y37	Z37	X38	Y38	Z38	X39	Y39	Z39	X40	Y40	Z40	X41	Y41	Z41	X42	Y42	Z42	X43	Y43	Z43	X44	Y44	Z44	X45	Y45	Z45	X46	Y46	Z46	X47	Y47	Z47	X48	Y48	Z48	X49	Y49	Z49	X50	Y50	Z50	X51	Y51	Z51	

35	0.34000000	219.25181	465.46251	-96.81728	247.84018	347.60850	-124.79204	151.86208	87.99727	-172.81879	103.80656	55.10779	-229.93839	261.80221	37.28250	-142.44137	301.44554	55.90176	-183.72244	430.34775	507.52047	-373.66183	437.44218	392.08808	-336.69737	238.24109	175.32271	-365.79096	181.17172	159.17674	-314.51952	320.63787	77.39217	-391.98090	367.48208	77.92218	-343.36574	228.88683	239.87896	-151.68145	190.90432	342.96661	-73.79834	156.38027	240.46138	-107.76495	398.73516	437.85928	-399.47329	337.76637	334.57569	-415.94905	318.02514	769.72697	-80.59158	321.84167	657.67940	-88.45694	275.28624	629.79649	-45.65334	214.37308	758.70623	-30.32405	220.77481	645.30411	-40.14945	346.14468	788.44417	-391.81825	429.60212	680.26334	-388.07166	254.87610	726.48315	-419.92216	341.70038	615.97859	-406.78839	323.72476	935.64230	-105.91529	138.48715	978.78797	-173.26136	324.01865	932.94447	-346.38158	134.61031	972.82039	-290.72518	158.84180	1427.92200	-213.02504	219.05547	1395.16624	-66.41110	211.25975	1406.30820	-375.98050	287.84000	1380.92035	-202.15798	287.57028	1379.79103	-246.17829	255.16728	1271.40419	-3.16853	208.79244	1064.00920	-44.67289	238.22964	1076.51859	24.04725	324.08356	982.48966	37.17568	389.00699	899.30810	34.32459	358.21857	881.32729	49.24764	217.37455	1257.35434	-445.03912	156.61049	1068.59535	-379.22071	154.96456	1079.37964	-452.25413	197.67409	992.43281	-487.79764	230.99403	865.22714	-489.99985	201.95965	859.24936	-502.30072	232.94772	864.12279	-128.93455	238.33190	856.79609	-318.09788	252.06364	872.19948	-133.80616	246.83680	864.15265	-292.23386	
36	0.35000000	222.45859	465.35323	-96.52985	249.14875	346.89307	-124.69371	152.15628	88.10249	-173.03034	103.84014	55.32794	-230.08939	261.57984	37.18915	-142.33832	301.47708	55.82688	-183.71082	446.18074	510.02948	-372.28816	459.01891	395.19068	-335.33357	274.72617	165.31107	-364.61986	218.64918	145.40647	-313.21952	363.63463	73.62368	-390.47446	410.55834	77.56399	-341.73425	230.09500	239.59560	-151.58396	192.76531	342.92124	-73.58580	157.51647	240.66253	-107.65616	417.86863	438.26503	-398.43290	363.80144	331.19797	-414.78827	326.74537	768.08109	-80.40617	328.77589	656.02467	-88.33446	281.65145	628.80884	-45.60160	222.93380	758.65587	-30.06503	227.39081	645.18766	-39.98763	359.15830	790.27902	-391.37198	443.71046	683.01900	-386.34702	268.47509	727.40574	-420.51033	356.55844	617.81750	-406.14412	334.06073	934.82341	-105.38177	149.16803	978.33589	-173.18618	335.06293	933.26020	-345.82427	145.58767	972.42986	-290.60999	170.29274	1427.71585	-212.21194	230.72310	1395.12098	-65.77503	222.30218	1405.91353	-375.24473	299.24101	1380.60205	-201.48684	298.86650	1379.46294	-245.53010	268.16745	1272.04445	-2.45497	224.23257	1063.90195	-42.94217	254.16688	1077.11620	25.51852	342.29215	985.15485	37.78747	409.44534	903.89682	33.85462	379.33241	884.94121	49.33892	226.52799	1256.90707	-444.42553	164.13025	1069.07536	-377.61256	161.60862	1079.85425	-450.83132	202.23434	992.23344	-487.08012	233.26945	864.54047	-490.08845	203.99208	858.84330	-501.78494	243.48027	863.40058	-128.96164	249.45064	856.81370	-318.13352	262.43251	872.04638	-133.48737	257.60415	864.07924	-291.91071	
37	0.36000000	225.52936	465.26140	-96.18813	250.39371	346.21094	-124.48698	152.36893	88.29211	-173.24797	103.88299	55.53811	-230.26931	261.28720	37.06705	-142.19387	301.51063	55.74489	-183.69167	461.29167	511.74666	-371.03796	479.87386	398.04611	-333.76466	311.81267	155.73993	-363.41471	256.89596	132.17235	-311.95417	406.86311	70.65154	-388.48474	453.52557	78.15991	-339.50524	231.19711	239.35874	-151.39159	194.48357	342.90538	-73.34089	158.54812	240.90424	-107.53402	436.68249	438.04617	-397.52647	390.02254	327.55639	-413.66671	335.39353	766.31376	-80.17285	335.70360	654.25416	-88.20184	288.00944	627.79025	-45.53891	231.53445	758.52369	-29.79604	233.97000	645.01708	-39.83956	371.96951	791.51097	-390.98153	457.25007	684.91277	-384.66306	281.88265	728.17650	-420.91299	370.69542	619.07906	-405.46767	344.54769	933.82638	-104.92954	159.95697	977.77698	-173.08949	346.16029	933.31834	-345.36081	156.66048	971.86614	-290.44852	181.71871	1427.29968	-211.40423	242.41601	1394.82676	-65.17485	233.35611	1405.33866	-374.53052	310.65988	1380.05052	-200.86734	310.18494	1378.91128	-244.91799	281.10402	1272.44406	-1.75914	239.49677	1063.62326	-41.22263	269.91353	1077.53763	26.95075	360.25724	987.62221	38.32078	429.38060	908.40434	33.17215	400.07033	888.41777	49.34800	235.87593	1256.31724	-443.82418	171.77020	1069.44073	-376.04168	168.61965	1080.16682	-449.45403	207.11729	991.97960	-486.36044	235.82724	863.77220	-490.12058	206.33657	858.45032	-501.26502	254.13284	862.53234	-128.98819	260.58588	856.62089	-318.16567	272.87800	871.76017	-133.20805	268.42986	863.78118	-291.63380	
38	0.37000000	228.52123	465.18201	-95.78407	251.70517	345.59140	-124.13267	152.48752	88.59069	-173.44819	103.94855	55.73197	-230.45227	260.97852	36.92824	-142.02059	301.55432	55.65105	-183.65866	475.72208	512.64347	-369.93022	500.03576	400.66259	-331.97756	349.34475	146.85732	-362.16971	295.70396	119.72851	-310.72890	450.13829	68.59880	-385.93069	496.11497	79.78298	-336.61849	232.21425	239.16131	-151.08866	196.09408	342.92497	-73.04475	159.50044	241.19879	-107.38608	455.24052	437.27235	-396.72454	416.39331	323.80601	-412.56943	343.99012	764.45654	-79.89179	342.61154	652.38963	-88.05683	294.42650	626.76169	-45.46002	240.18292	758.31789	-29.50726	240.55375	644.79422	-39.69514	384.52960	792.09683	-390.63399	470.18874	685.89573	-383.06777	295.05648	728.70244	-421.11109	384.09290	619.70750	-404.83003	355.19952	932.65130	-104.54174	170.84760	977.10296	-172.97771	357.34642	933.10578	-344.94050	167.82923	971.12432	-290.25654	193.13143	1426.65824	-210.61227	254.14945	1394.27007	-64.61306	244.43324	1404.58093	-373.84813	322.10531	1379.26386	-200.31599	321.53159	1378.13488	-244.35881	293.99871	1272.57370	-1.08535	254.57681	1063.13417	-39.51537	285.44546	1077.74469	28.34562	377.96587	989.86533	38.78306	448.83305	912.74879	32.35364	420.44464	891.71421	49.28117	245.39941	1255.58089	-443.24895	179.60845	1069.64619	-374.53277	176.01084	1080.29628	-448.12383	212.35870	991.64906	-485.64110	238.69133	862.89416	-490.08058	209.03569	858.06883	-500.72945	264.90251	861.51699	-128.99672	271.76434	856.20564	-318.17723	283.42063	871.33649	-132.95364	279.34496	863.26068	-291.36545	
